<?xml version="1.0" encoding="UTF-8" standalone="no"?>
<!-- Created with Inkscape (http://www.inkscape.org/) -->

<svg
   width="210mm"
   height="105mm"
   viewBox="0 0 210 105"
   version="1.1"
   id="svg1"
   sodipodi:docname="landing-bg.svg"
   inkscape:version="1.4 (86a8ad7, 2024-10-11)"
   xml:space="preserve"
   xmlns:inkscape="http://www.inkscape.org/namespaces/inkscape"
   xmlns:sodipodi="http://sodipodi.sourceforge.net/DTD/sodipodi-0.dtd"
   xmlns:xlink="http://www.w3.org/1999/xlink"
   xmlns="http://www.w3.org/2000/svg"
   xmlns:svg="http://www.w3.org/2000/svg"><sodipodi:namedview
     id="namedview1"
     pagecolor="#ffffff"
     bordercolor="#000000"
     borderopacity="0.25"
     inkscape:showpageshadow="2"
     inkscape:pageopacity="0.0"
     inkscape:pagecheckerboard="0"
     inkscape:deskcolor="#d1d1d1"
     inkscape:document-units="mm"
     inkscape:zoom="1.0015858"
     inkscape:cx="381.39519"
     inkscape:cy="208.16989"
     inkscape:window-width="1920"
     inkscape:window-height="1009"
     inkscape:window-x="-8"
     inkscape:window-y="-8"
     inkscape:window-maximized="1"
     inkscape:current-layer="layer1" /><defs
     id="defs1"><inkscape:path-effect
       effect="fillet_chamfer"
       id="path-effect1"
       is_visible="true"
       lpeversion="1"
       nodesatellites_param="F,0,0,1,0,4.4896514,0,1 @ F,0,0,1,0,5.3879924,0,1 @ F,0,0,1,0,0,0,1 @ F,0,0,1,0,0,0,1"
       radius="0"
       unit="px"
       method="auto"
       mode="F"
       chamfer_steps="1"
       flexible="false"
       use_knot_distance="true"
       apply_no_radius="true"
       apply_with_radius="true"
       only_selected="false"
       hide_knots="false" /><linearGradient
       id="linearGradient35"
       inkscape:collect="always"><stop
         style="stop-color:#828c9c;stop-opacity:1;"
         offset="0"
         id="stop35" /><stop
         style="stop-color:#828c9c;stop-opacity:0;"
         offset="1"
         id="stop36" /></linearGradient><linearGradient
       id="linearGradient30"
       inkscape:collect="always"><stop
         style="stop-color:#828c9c;stop-opacity:1;"
         offset="0"
         id="stop30" /><stop
         style="stop-color:#828c9c;stop-opacity:0;"
         offset="1"
         id="stop31" /></linearGradient><linearGradient
       id="linearGradient12"
       inkscape:collect="always"><stop
         style="stop-color:#828c9c;stop-opacity:1;"
         offset="0.60666668"
         id="stop11" /><stop
         style="stop-color:#828c9c;stop-opacity:0;"
         offset="1"
         id="stop12" /></linearGradient><linearGradient
       id="linearGradient9"
       inkscape:collect="always"><stop
         style="stop-color:#828c9c;stop-opacity:1;"
         offset="0.44666669"
         id="stop9" /><stop
         style="stop-color:#828c9c;stop-opacity:0;"
         offset="1"
         id="stop10" /></linearGradient><inkscape:path-effect
       effect="fillet_chamfer"
       id="path-effect4"
       is_visible="true"
       lpeversion="1"
       nodesatellites_param="F,0,0,1,0,1.6811321,0,1 @ F,0,0,1,0,2.5216981,0,1 @ F,0,0,1,0,1.3962762,0,1 @ F,0,0,1,0,1.7371698,0,1"
       radius="0"
       unit="px"
       method="auto"
       mode="F"
       chamfer_steps="1"
       flexible="false"
       use_knot_distance="true"
       apply_no_radius="true"
       apply_with_radius="true"
       only_selected="false"
       hide_knots="false" /><linearGradient
       id="linearGradient3"
       inkscape:collect="always"><stop
         style="stop-color:#828c9c;stop-opacity:1;"
         offset="0.48888889"
         id="stop3" /><stop
         style="stop-color:#828c9c;stop-opacity:0;"
         offset="1"
         id="stop4" /></linearGradient><linearGradient
       inkscape:collect="always"
       xlink:href="#linearGradient3"
       id="linearGradient4"
       x1="65.116539"
       y1="55.870068"
       x2="65.116539"
       y2="80.570862"
       gradientUnits="userSpaceOnUse"
       gradientTransform="matrix(3.5567271,0,0,1.121315,-130.80278,-13.197114)" /><linearGradient
       inkscape:collect="always"
       xlink:href="#linearGradient9"
       id="linearGradient10"
       x1="67.080612"
       y1="76.984596"
       x2="62.833935"
       y2="36.580193"
       gradientUnits="userSpaceOnUse"
       gradientTransform="matrix(1.121315,0,0,1.121315,-17.213663,-14.253771)" /><linearGradient
       inkscape:collect="always"
       xlink:href="#linearGradient12"
       id="linearGradient11"
       gradientUnits="userSpaceOnUse"
       gradientTransform="matrix(1.121315,0,0,1.121315,76.448885,-14.253771)"
       x1="44.755058"
       y1="58.905731"
       x2="85.15947"
       y2="54.659058" /><linearGradient
       inkscape:collect="always"
       xlink:href="#linearGradient30"
       id="linearGradient31"
       x1="151.34839"
       y1="48.332645"
       x2="141.88977"
       y2="48.332645"
       gradientUnits="userSpaceOnUse"
       gradientTransform="rotate(-8.6639237,148.03921,227.24511)" /><linearGradient
       inkscape:collect="always"
       xlink:href="#linearGradient35"
       id="linearGradient36"
       x1="117.30016"
       y1="44.772533"
       x2="97.776749"
       y2="51.878475"
       gradientUnits="userSpaceOnUse" /></defs><g
     inkscape:label="Layer 1"
     inkscape:groupmode="layer"
     id="layer1"><path
       id="path30"
       style="opacity:1;fill:url(#linearGradient31);stroke-width:0.264583"
       d="m 117.84912,45.912579 a 2.0780661,2.1014149 81.336076 0 0 -0.27521,0.08062 2.0780661,2.1014149 81.336076 0 0 -1.28776,2.540145 2.0780661,2.1014149 81.336076 0 0 0.27878,0.576547 2.7572162,2.7076852 81.336076 0 0 -1.37256,3.235751 2.7572162,2.7076852 81.336076 0 0 3.19229,1.917598 2.7572162,2.7076852 81.336076 0 0 2.10425,-2.471671 1.5849866,1.5849866 0 0 0 0.61307,-0.01082 1.5849866,1.5849866 0 0 0 1.22237,-1.785812 l -0.12196,-0.412667 a 1.5849866,1.5849866 0 0 0 -1.9634,-0.844031 2.0780661,2.1014149 81.336076 0 0 0.13974,-1.113794 l -0.16077,-0.540573 a 2.0780661,2.1014149 81.336076 0 0 -2.3692,-1.171108 z m 5.68687,6.830638 a 1.0974057,1.1674528 81.336076 0 0 -0.15322,0.04425 1.0974057,1.1674528 81.336076 0 0 -0.72509,1.347787 1.0974057,1.1674528 81.336076 0 0 1.36454,0.74919 1.0974057,1.1674528 81.336076 0 0 0.91041,-1.24639 l -0.0868,-0.285263 a 1.0974057,1.1674528 81.336076 0 0 -1.3098,-0.609602 z" /><path
       id="rect1"
       style="opacity:0.6;fill:url(#linearGradient10);fill-opacity:1;stroke-width:0.297616"
       d="m 33.967333,39.360359 c -0.621209,0 -1.121246,0.50365 -1.121246,1.128779 v 14.435399 c 0,0.62513 0.500037,1.128779 1.121246,1.128779 h 3.153977 a 3.5607039,3.5607039 0 0 0 0.02086,0.343038 3.5607039,3.5607039 0 0 0 3.769938,3.069376 3.5607039,3.5607039 0 0 0 3.308113,-3.412414 h 18.90242 c 0.621209,0 1.121246,-0.503649 1.121246,-1.128779 V 40.489138 c 0,-0.625129 -0.500037,-1.128779 -1.121246,-1.128779 z m 33.123999,3.357365 a 1.8850787,1.9141713 0 0 0 -1.884969,1.913942 v 9.507128 a 1.9479146,1.977977 0 0 0 1.94755,1.977683 h 1.419666 a 3.5607039,3.5607039 0 0 0 0.0168,0.279877 3.5607039,3.5607039 0 0 0 3.769937,3.069376 3.5607039,3.5607039 0 0 0 3.303478,-3.349253 h 1.172238 a 1.5656654,1.5898286 0 0 0 1.565692,-1.589448 v -3.636083 l -0.90395,-1.269008 0.01217,-0.163986 -4.80021,-6.740228 z m 6.48237,2.687515 0.0023,0.0035 h 0.0087 v 0.01217 l 2.641738,3.936243 h -7.520754 v -3.948411 h 4.867426 z" /><rect
       style="opacity:0.55;fill:url(#linearGradient4);stroke-width:0.528386"
       id="rect3"
       width="144.69221"
       height="23.993132"
       x="27.98299"
       y="60.263344"
       sodipodi:type="rect" /><path
       id="path10"
       style="opacity:0.6;fill:url(#linearGradient11);fill-opacity:1;stroke-width:0.297616"
       d="m 127.63029,39.360388 c -0.62121,0 -1.12138,0.503484 -1.12138,1.128613 v 13.844117 l -7.18819,4.168737 c -0.38045,0.220602 -0.63821,0.481724 -0.57774,0.586011 0.0605,0.10433 0.41536,0.0108 0.79581,-0.209806 l 6.97012,-4.041614 v 0.08785 c 0,0.62513 0.50017,1.12913 1.12138,1.12913 h 3.15381 a 3.5607039,3.5607039 0 0 0 0.0207,0.343132 3.5607039,3.5607039 0 0 0 3.77031,3.069063 3.5607039,3.5607039 0 0 0 3.30781,-3.412195 h 18.90273 c 0.62121,0 1.12137,-0.504 1.12137,-1.12913 V 40.489001 c 0,-0.625129 -0.50016,-1.128613 -1.12137,-1.128613 z m 33.12408,3.357418 a 1.8850787,1.9141713 0 0 0 -1.88516,1.914095 v 9.506913 a 1.9479146,1.977977 0 0 0 1.94768,1.977657 h 1.41956 a 3.5607039,3.5607039 0 0 0 0.0171,0.280087 3.5607039,3.5607039 0 0 0 3.76979,3.069063 3.5607039,3.5607039 0 0 0 3.30368,-3.34915 h 1.17202 a 1.5656654,1.5898286 0 0 0 1.5658,-1.589567 v -3.635953 l -0.90382,-1.269174 0.0119,-0.163814 -4.80022,-6.740157 z m 6.48229,2.687691 0.002,0.0031 h 0.009 v 0.0124 l 2.6417,3.936194 h -7.52047 v -3.948596 h 4.8674 z" /><g
       id="g27"
       transform="translate(-4.0752627,-2.3031906)"
       style="opacity:0.6"><path
         id="path24"
         style="opacity:1;fill:url(#linearGradient36);stroke-width:0.239862"
         d="m 105.90775,37.454561 a 6.5380692,6.5380692 0 0 0 -0.97359,0.126608 6.5380692,6.5380692 0 0 0 -5.15162,7.289477 6.5380692,6.5380692 0 0 0 0.24391,1.060917 5.3163085,5.3163085 0 0 0 -2.828249,5.435327 5.3163085,5.3163085 0 0 0 4.848799,4.576465 4.2926712,4.2926712 0 0 0 4.44934,3.252515 4.2926712,4.2926712 0 0 0 3.44682,-2.174028 5.9271889,5.9271889 0 0 0 2.45928,0.364836 5.9271889,5.9271889 0 0 0 5.52421,-5.913334 l -0.21859,-1.594218 a 5.9271889,5.9271889 0 0 0 -1.68775,-2.739884 3.6157501,3.6157501 0 0 0 1.67483,-3.040125 l -0.13332,-0.97255 a 3.6157501,3.6157501 0 0 0 -4.21577,-2.568319 3.6157501,3.6157501 0 0 0 -1.24178,0.524516 6.5380692,6.5380692 0 0 0 -6.19652,-3.628203 z" /><g
         style="fill:#ffffff"
         id="g16"
         transform="matrix(0.00870009,0,0,0.00870009,108.89183,55.739747)"><path
           d="m 260,-520 220,-360 220,360 z M 700,-80 Q 625,-80 572.5,-132.5 520,-185 520,-260 520,-335 572.5,-387.5 625,-440 700,-440 q 75,0 127.5,52.5 52.5,52.5 52.5,127.5 0,75 -52.5,127.5 Q 775,-80 700,-80 Z m -580,-20 v -320 h 320 v 320 z m 580,-60 q 42,0 71,-29 29,-29 29,-71 0,-42 -29,-71 -29,-29 -71,-29 -42,0 -71,29 -29,29 -29,71 0,42 29,71 29,29 71,29 z M 200,-180 H 360 V -340 H 200 Z m 202,-420 h 156 l -78,-126 z m 78,0 z m -120,260 z m 340,80 z"
           id="path1"
           style="fill:#ffffff" /></g><g
         style="fill:#1f1f1f"
         id="g17"
         transform="matrix(0.00554141,0,0,0.00554141,98.481321,52.749519)"><path
           d="m 280,-496.98707 q -33,0 -56.5,-23.5 -23.5,-23.5 -23.5,-56.5 v -80 q 0,-33 23.5,-56.5 23.5,-23.5 56.5,-23.5 h 400 q 33,0 56.5,23.5 23.5,23.5 23.5,56.5 v 80 q 0,33 -23.5,56.5 -23.5,23.5 -56.5,23.5 z m 0,-80 h 400 v -80 H 280 Z M 160,63.012927 q -33,0 -56.5,-23.5 -23.5,-23.5 -23.5,-56.5 v -40 h 800 v 40 q 0,33 -23.5,56.5 -23.5,23.5 -56.5,23.5 z m -80,-160 139,-312.999997 q 10,-22 30,-34.5 20,-12.5 43,-12.5 h 376 q 23,0 43,12.5 20,12.5 30,34.5 l 139,312.999997 z m 260,-79.999997 h 40 q 8,0 14,-6 6,-6 6,-14 0,-8 -6,-14 -6,-6 -14,-6 h -40 q -8,0 -14,6 -6,6 -6,14 0,8 6,14 6,6 14,6 z m 0,-80 h 40 q 8,0 14,-6 6,-6 6,-14 0,-8 -6,-14 -6,-6 -14,-6 h -40 q -8,0 -14,6 -6,6 -6,14 0,8 6,14 6,6 14,6 z m 0,-80 h 40 q 8,0 14,-6 6,-6 6,-14 0,-8 -6,-14 -6,-6 -14,-6 h -40 q -8,0 -14,6 -6,6 -6,14 0,8 6,14 6,6 14,6 z m 120,160 h 40 q 8,0 14,-6 6,-6 6,-14 0,-8 -6,-14 -6,-6 -14,-6 h -40 q -8,0 -14,6 -6,6 -6,14 0,8 6,14 6,6 14,6 z m 0,-80 h 40 q 8,0 14,-6 6,-6 6,-14 0,-8 -6,-14 -6,-6 -14,-6 h -40 q -8,0 -14,6 -6,6 -6,14 0,8 6,14 6,6 14,6 z m 0,-80 h 40 q 8,0 14,-6 6,-6 6,-14 0,-8 -6,-14 -6,-6 -14,-6 h -40 q -8,0 -14,6 -6,6 -6,14 0,8 6,14 6,6 14,6 z m 120,160 h 40 q 8,0 14,-6 6,-6 6,-14 0,-8 -6,-14 -6,-6 -14,-6 h -40 q -8,0 -14,6 -6,6 -6,14 0,8 6,14 6,6 14,6 z m 0,-80 h 40 q 8,0 14,-6 6,-6 6,-14 0,-8 -6,-14 -6,-6 -14,-6 h -40 q -8,0 -14,6 -6,6 -6,14 0,8 6,14 6,6 14,6 z m 0,-80 h 40 q 8,0 14,-6 6,-6 6,-14 0,-8 -6,-14 -6,-6 -14,-6 h -40 q -8,0 -14,6 -6,6 -6,14 0,8 6,14 6,6 14,6 z"
           id="path1-8"
           style="fill:#ffffff" /></g><g
         style="fill:#ffffff"
         id="g18"
         transform="matrix(0.00677998,0,0,0.00677998,110.33951,47.816129)"><path
           d="m 841,-518 v 318 q 0,33 -23.5,56.5 Q 794,-120 761,-120 H 201 q -33,0 -56.5,-23.5 Q 121,-167 121,-200 V -518 Q 98,-539 85.5,-572 73,-605 85,-644 l 42,-136 q 8,-26 28.5,-43 20.5,-17 47.5,-17 h 556 q 27,0 47,16.5 20,16.5 29,43.5 l 42,136 q 12,39 -0.5,71 -12.5,32 -35.5,55 z m -272,-42 q 27,0 41,-18.5 14,-18.5 11,-41.5 l -22,-140 h -78 v 148 q 0,21 14,36.5 14,15.5 34,15.5 z m -180,0 q 23,0 37.5,-15.5 Q 441,-591 441,-612 v -148 h -78 l -22,140 q -4,24 10.5,42 14.5,18 37.5,18 z m -178,0 q 18,0 31.5,-13 13.5,-13 16.5,-33 l 22,-154 h -78 l -40,134 q -6,20 6.5,43 12.5,23 41.5,23 z m 540,0 q 29,0 42,-23 13,-23 6,-43 l -42,-134 h -76 l 22,154 q 3,20 16.5,33 13.5,13 31.5,13 z m -550,360 h 560 v -282 q -5,2 -6.5,2 H 751 q -27,0 -47.5,-9 -20.5,-9 -40.5,-29 -18,18 -41,28 -23,10 -49,10 -27,0 -50.5,-10 -23.5,-10 -41.5,-28 -17,18 -39.5,28 -22.5,10 -48.5,10 -29,0 -52.5,-10 -23.5,-10 -41.5,-28 -21,21 -41.5,29.5 -20.5,8.5 -46.5,8.5 h -4.5 q -2.5,0 -5.5,-2 z m 560,0 H 201 Z"
           id="path1-9"
           style="fill:#ffffff" /></g><g
         style="fill:#ffffff"
         id="g19"
         transform="matrix(0.005147,0,0,0.005147,105.09337,51.919739)"><path
           d="m 280,-160 q -50,0 -85,-35 -35,-35 -35,-85 H 60 l 18,-80 h 113 q 17,-19 40,-29.5 23,-10.5 49,-10.5 26,0 49,10.5 23,10.5 40,29.5 h 167 l 84,-360 H 182 l 4,-17 q 6,-28 27.5,-45.5 Q 235,-800 264,-800 h 456 l -37,160 h 117 l 120,160 -40,200 h -80 q 0,50 -35,85 -35,35 -85,35 -50,0 -85,-35 -35,-35 -35,-85 H 400 q 0,50 -35,85 -35,35 -85,35 z m 357,-280 h 193 l 4,-21 -74,-99 h -95 z m -19,-273 2,-7 -84,360 2,-7 34,-146 z m -598,286 20,-80 h 220 l -20,80 z m 80,-146 20,-80 h 260 l -20,80 z m 180,333 q 17,0 28.5,-11.5 Q 320,-263 320,-280 320,-297 308.5,-308.5 297,-320 280,-320 q -17,0 -28.5,11.5 -11.5,11.5 -11.5,28.5 0,17 11.5,28.5 11.5,11.5 28.5,11.5 z m 400,0 q 17,0 28.5,-11.5 Q 720,-263 720,-280 720,-297 708.5,-308.5 697,-320 680,-320 q -17,0 -28.5,11.5 -11.5,11.5 -11.5,28.5 0,17 11.5,28.5 11.5,11.5 28.5,11.5 z"
           id="path1-1"
           style="fill:#ffffff" /></g><g
         style="fill:#ffffff"
         id="g20"
         transform="matrix(0.00430315,0,0,0.00430315,103.92274,58.226876)"><path
           d="m 200,-80 q -33,0 -56.5,-23.5 Q 120,-127 120,-160 V -611 Q 102,-622 91,-639.5 80,-657 80,-680 v -120 q 0,-33 23.5,-56.5 Q 127,-880 160,-880 h 640 q 33,0 56.5,23.5 23.5,23.5 23.5,56.5 v 120 q 0,23 -11,40.5 -11,17.5 -29,28.5 v 451 q 0,33 -23.5,56.5 Q 793,-80 760,-80 Z m 0,-520 v 440 h 560 v -440 z m -40,-80 H 800 V -800 H 160 Z m 200,280 h 240 v -80 H 360 Z m 120,20 z"
           id="path1-4"
           style="fill:#ffffff" /></g><g
         style="fill:#ffffff"
         id="g21"
         transform="matrix(0.00964146,0,0,0.00964146,101.08203,46.902689)"><path
           d="M 440,-183 V -457 L 200,-596 v 274 z m 80,0 240,-139 v -274 l -240,139 z m -80,92 -280,-161 q -19,-11 -29.5,-29 -10.5,-18 -10.5,-40 v -318 q 0,-22 10.5,-40 10.5,-18 29.5,-29 l 280,-161 q 19,-11 40,-11 21,0 40,11 l 280,161 q 19,11 29.5,29 10.5,18 10.5,40 v 318 q 0,22 -10.5,40 -10.5,18 -29.5,29 L 520,-91 q -19,11 -40,11 -21,0 -40,-11 z m 200,-528 77,-44 -237,-137 -78,45 z m -160,93 78,-45 -237,-137 -78,45 z"
           id="path1-87"
           style="fill:#ffffff" /></g></g></g></svg>
