<?xml version="1.0" encoding="UTF-8" standalone="no"?>
<!-- Created with Inkscape (http://www.inkscape.org/) -->

<svg
   width="210mm"
   height="210mm"
   viewBox="0 0 210 210"
   version="1.1"
   id="svg1"
   xml:space="preserve"
   inkscape:version="1.4 (86a8ad7, 2024-10-11)"
   sodipodi:docname="gestock-favicon.svg"
   xmlns:inkscape="http://www.inkscape.org/namespaces/inkscape"
   xmlns:sodipodi="http://sodipodi.sourceforge.net/DTD/sodipodi-0.dtd"
   xmlns:xlink="http://www.w3.org/1999/xlink"
   xmlns="http://www.w3.org/2000/svg"
   xmlns:svg="http://www.w3.org/2000/svg"><sodipodi:namedview
     id="namedview1"
     pagecolor="#ffffff"
     bordercolor="#000000"
     borderopacity="0.25"
     inkscape:showpageshadow="2"
     inkscape:pageopacity="0.0"
     inkscape:pagecheckerboard="0"
     inkscape:deskcolor="#d1d1d1"
     inkscape:document-units="mm"
     inkscape:zoom="0.5007929"
     inkscape:cx="353.43952"
     inkscape:cy="86.862254"
     inkscape:window-width="1920"
     inkscape:window-height="1009"
     inkscape:window-x="-8"
     inkscape:window-y="-8"
     inkscape:window-maximized="1"
     inkscape:current-layer="svg1" /><defs
     id="defs1"><linearGradient
       id="linearGradient6"
       inkscape:collect="always"><stop
         style="stop-color:#122d59;stop-opacity:1;"
         offset="0"
         id="stop6" /><stop
         style="stop-color:#000000;stop-opacity:1;"
         offset="1"
         id="stop7" /></linearGradient><linearGradient
       id="linearGradient4"
       inkscape:collect="always"><stop
         style="stop-color:#f4f8f8;stop-opacity:1;"
         offset="0.53807533"
         id="stop4" /><stop
         style="stop-color:#b3c4cc;stop-opacity:1;"
         offset="0.91129708"
         id="stop5" /></linearGradient><linearGradient
       inkscape:collect="always"
       xlink:href="#linearGradient4"
       id="linearGradient5"
       x1="40.276096"
       y1="-29.163509"
       x2="67.316376"
       y2="71.752182"
       gradientUnits="userSpaceOnUse" /><linearGradient
       inkscape:collect="always"
       xlink:href="#linearGradient6"
       id="linearGradient7"
       x1="110.07536"
       y1="35.164284"
       x2="110.07536"
       y2="167.19695"
       gradientUnits="userSpaceOnUse"
       gradientTransform="matrix(1.0597822,0,0,1.0597822,-11.032474,-1.9004562)" /></defs><g
     inkscape:label="Layer 1"
     inkscape:groupmode="layer"
     id="layer1"><path
       sodipodi:type="star"
       style="opacity:1;fill:url(#linearGradient5);fill-opacity:1;stroke-width:0.264583"
       id="path1"
       inkscape:flatsided="true"
       sodipodi:sides="6"
       sodipodi:cx="53.796227"
       sodipodi:cy="21.29434"
       sodipodi:r1="59.545498"
       sodipodi:r2="51.567913"
       sodipodi:arg1="-0.52359878"
       sodipodi:arg2="0"
       inkscape:rounded="0.03"
       inkscape:randomized="0"
       d="m 105.36414,-8.478409 c 0.89318,1.5470374 0.89318,57.99846 0,59.545498 -0.89318,1.547037 -49.781548,29.772749 -51.567913,29.772749 -1.786365,0 -50.6747317,-28.225711 -51.5679142,-29.772749 C 1.3351303,49.520052 1.3351301,-6.9313712 2.2283125,-8.4784086 3.121495,-10.025446 52.009861,-38.251158 53.796226,-38.251158 c 1.786365,0 50.674734,28.225712 51.567914,29.772749 z"
       transform="matrix(1.7032867,0,0,1.7032867,13.304006,68.844685)" /></g><path
     style="fill:url(#linearGradient7);stroke-width:1.51006"
     d="m 101.95725,185.31871 c -1.19805,-0.21398 -3.462539,-0.89223 -4.086886,-1.22409 -0.376594,-0.20015 -2.043162,-1.03839 -3.703479,-1.86274 -1.660308,-0.82432 -4.878785,-2.4951 -7.15214,-3.7128 -2.273363,-1.2177 -4.171149,-2.21402 -4.217303,-2.21402 -0.04616,0 -0.640096,-0.31481 -1.319871,-0.69958 -0.679775,-0.38478 -2.702942,-1.44109 -4.495927,-2.34736 -1.792984,-0.90626 -4.509873,-2.33028 -6.037529,-3.16447 -1.527656,-0.8342 -4.442747,-2.37139 -6.47798,-3.41594 -2.03523,-1.04456 -3.788062,-1.97011 -3.895179,-2.05675 -0.107126,-0.0867 -1.158816,-0.65933 -2.337107,-1.27263 -3.36917,-1.75364 -5.395953,-2.84607 -6.134912,-3.30671 -0.864561,-0.53892 -4.958756,-2.86755 -6.621806,-3.76622 -3.319116,-1.79358 -5.82098,-3.84384 -6.638171,-5.43995 -0.149435,-0.29191 -0.492998,-0.9251 -0.763458,-1.40714 -0.694199,-1.23723 -1.673435,-3.59089 -2.06624,-4.96635 l -0.333717,-1.16856 -0.0076,-36.90682 -0.0076,-36.906843 0.436663,-2.112691 c 1.36748,-6.616223 4.001844,-9.799696 11.230099,-13.570928 1.285409,-0.670647 3.388806,-1.788633 4.674217,-2.484422 1.285408,-0.695804 3.476448,-1.875445 4.868975,-2.621458 1.392528,-0.746015 3.057718,-1.640421 3.700422,-1.987598 0.642704,-0.347161 2.132612,-1.141224 3.310904,-1.764562 1.178292,-0.623351 2.361454,-1.282763 2.629247,-1.46536 0.267794,-0.182596 2.546474,-1.385733 5.063735,-2.673631 7.587441,-3.881961 10.177051,-5.269341 12.464582,-6.677891 0.482032,-0.296817 2.05957,-1.141846 3.505665,-1.877848 2.944918,-1.498851 7.057276,-3.760299 7.206086,-3.962737 0.14374,-0.195536 2.634069,-1.441454 4.089951,-2.046188 3.166969,-1.315501 8.463779,-1.389675 11.431399,-0.160097 1.82373,0.755634 9.95976,4.952234 13.69252,7.062658 1.33895,0.757038 4.84462,2.590956 7.79034,4.075403 5.74718,2.896167 9.28673,4.730146 10.22486,5.297896 0.87842,0.531616 5.66036,3.046103 10.9065,5.734955 2.5708,1.317646 5.68208,2.931534 6.91393,3.586416 1.23184,0.654898 3.66395,1.893023 5.40466,2.751386 6.04581,2.981273 8.08406,5.10458 9.81291,10.222481 l 0.46053,1.363311 0.0538,27.961848 0.0538,27.96184 -0.38755,0.35074 c -0.21315,0.19291 -0.80188,0.42814 -1.30829,0.52275 -0.50639,0.0946 -1.12305,0.36207 -1.37033,0.59439 l -0.4496,0.42238 v 0.84247 c 0,0.46336 0.0744,0.82056 0.16522,0.79377 0.0908,-0.0268 0.58605,0.30188 1.1004,0.73036 0.51435,0.42846 1.14507,0.95431 1.40162,1.16854 l 0.46643,0.38952 0.203,3.11615 c 0.11153,1.71387 0.16684,5.21954 0.12262,7.79035 l -0.0803,4.67421 -0.53419,1.75284 c -1.6715,5.48479 -4.00653,7.85699 -11.37917,11.56033 -1.96243,0.98576 -4.37257,2.21623 -5.3559,2.73442 -0.9833,0.51817 -3.54066,1.84042 -5.683,2.93834 -2.14235,1.09793 -3.98283,2.06244 -4.08995,2.14338 -0.10707,0.081 -1.55318,0.86979 -3.21351,1.75308 -1.66032,0.88327 -3.45698,1.84534 -3.99255,2.13794 -0.53559,0.29258 -2.20078,1.17345 -3.70044,1.95744 -1.49963,0.78402 -3.03337,1.61646 -3.40826,1.84989 -0.37493,0.23346 -1.09617,0.60732 -1.60279,0.83084 -0.50663,0.22349 -1.99652,0.99166 -3.31091,1.70706 -10.52227,5.72696 -17.92888,9.29306 -21.18404,10.1995 l -1.46068,0.40676 -2.04498,-0.0271 c -1.12473,-0.0151 -2.26407,-0.0662 -2.53185,-0.11411 z m 7.76616,-6.57655 c 1.00428,-0.40843 2.58183,-1.15204 3.50565,-1.65246 0.92382,-0.50042 3.47632,-1.83645 5.67222,-2.96897 7.30494,-3.76749 8.66527,-4.47906 8.86154,-4.63536 0.10707,-0.0853 1.59703,-0.86529 3.31091,-1.73331 3.71884,-1.88343 6.69142,-3.44678 11.73367,-6.17102 2.06168,-1.11388 3.7924,-2.02526 3.84601,-2.02526 0.0536,0 0.86954,-0.42868 1.81315,-0.95264 0.94361,-0.52395 3.63879,-1.93401 5.98931,-3.13346 2.3505,-1.19945 4.36127,-2.24829 4.46839,-2.33076 0.10707,-0.0824 1.48519,-0.81575 3.06236,-1.62952 4.7708,-2.46158 5.93719,-3.49163 7.42896,-6.56055 l 0.80471,-1.65545 v -5.16109 -5.16114 l -0.36996,-0.74492 c -0.20345,-0.40972 -0.59783,-0.88972 -0.87639,-1.06668 -0.27857,-0.17696 -0.55031,-0.37727 -0.60386,-0.44514 -0.0537,-0.0679 -0.39853,-0.27777 -0.76663,-0.46646 l -0.66923,-0.34307 -1.08644,0.0985 c -0.74307,0.0673 -1.63953,0.3692 -2.83642,0.95496 -1.82307,0.89218 -5.82012,2.95784 -6.32683,3.26968 -0.51022,0.31402 -7.06101,3.77913 -8.47603,4.48353 -0.7476,0.37215 -2.97427,1.54593 -4.94816,2.60842 -1.97389,1.06247 -4.12111,2.17378 -4.77161,2.46958 -0.65048,0.29577 -1.75238,0.86102 -2.44865,1.2561 -1.36714,0.77576 -4.15766,2.21401 -5.25848,2.71027 -0.37491,0.169 -0.9884,0.49643 -1.36331,0.72756 -0.84475,0.52084 -3.59879,1.95232 -8.66678,4.50475 -2.14237,1.07897 -5.06896,2.60368 -6.5036,3.38825 -1.43462,0.78455 -2.63659,1.42646 -2.67104,1.42646 -0.0344,0 -0.96406,0.4525 -2.0658,1.00559 -1.10174,0.55308 -2.52248,1.26209 -3.15716,1.57559 l -1.15395,0.57 -0.54508,-0.10897 c -0.75197,-0.1504 -4.36024,-1.88356 -6.592813,-3.16674 -1.017615,-0.58487 -1.989271,-1.13848 -2.159232,-1.23022 -1.352912,-0.73045 -4.634798,-2.44941 -6.897055,-3.6125 -3.22723,-1.6592 -5.168169,-2.69338 -7.723836,-4.11541 -1.034585,-0.57568 -3.05034,-1.64458 -4.47946,-2.37536 -4.215704,-2.15566 -9.313786,-4.88478 -10.778276,-5.76984 -0.749823,-0.45315 -2.239729,-1.29198 -3.310902,-1.86405 -2.76394,-1.47608 -3.77303,-2.26076 -4.189752,-3.25795 -0.11072,-0.26491 -0.230265,-12.69801 -0.300981,-31.30136 l -0.117319,-30.86187 0.319329,-1.098459 0.319331,-1.098461 1.133071,-1.129555 c 1.745433,-1.740023 6.270984,-4.356135 15.982552,-9.239131 2.303026,-1.157973 4.789102,-2.442624 5.524613,-2.854778 0.735512,-0.412171 2.112693,-1.106572 3.060398,-1.543128 1.587638,-0.731336 3.169599,-1.566987 5.145492,-2.718042 0.770304,-0.448729 4.485859,-2.38432 7.692998,-4.007616 2.805952,-1.420223 6.690252,-3.241444 7.279612,-3.413152 l 0.56045,-0.163283 1.57556,0.723877 c 1.83767,0.844304 7.34513,3.615257 11.52097,5.796519 6.23148,3.255019 16.12717,8.259861 27.66613,13.99237 2.77935,1.380781 5.62305,2.827069 6.31931,3.213975 l 1.26593,0.70346 0.32644,0.973353 0.32644,0.973353 -0.0231,12.026366 -0.0231,12.026365 -0.20592,-9.24e-4 c -0.11329,-9.04e-4 -0.90705,-0.486931 -1.764,-1.080054 -0.85695,-0.593142 -1.77719,-1.226168 -2.04498,-1.406728 -0.26781,-0.18056 -1.07879,-0.746217 -1.80223,-1.257042 -1.7788,-1.256035 -1.64008,-1.317681 -4.19698,1.865454 -0.50309,0.626324 -1.46747,1.809496 -2.14306,2.62925 -0.67557,0.819762 -1.50816,1.83507 -1.85021,2.25621 -0.34203,0.421159 -0.81631,0.990821 -1.05393,1.265941 l -0.43206,0.50018 -0.0175,-10.224844 c -0.0241,-14.039552 -0.01,-13.893606 -1.53421,-14.913498 -0.38518,-0.257571 -0.91943,-0.615106 -1.18721,-0.794517 -0.2678,-0.179425 -0.81555,-0.530921 -1.21724,-0.781121 -0.40169,-0.250187 -1.05902,-0.664638 -1.46071,-0.920999 -0.9281,-0.59232 -2.01178,-1.205781 -4.33338,-2.453104 -1.01763,-0.546731 -1.98166,-1.077757 -2.14235,-1.180049 -0.16068,-0.102227 -0.73034,-0.400043 -1.26592,-0.661691 -1.39424,-0.681081 -5.39649,-2.821709 -5.63851,-3.015781 -0.11235,-0.09015 -1.5189,-0.843382 -3.12567,-1.673973 -1.60675,-0.830592 -3.05284,-1.616184 -3.21352,-1.745762 -0.28013,-0.225905 -3.90569,-2.2148 -5.94014,-3.258613 -0.5356,-0.2748 -1.80641,-0.951969 -2.82401,-1.504847 -1.01764,-0.552877 -2.33226,-1.223071 -2.9214,-1.489355 -0.58914,-0.266268 -1.47742,-0.699714 -1.973945,-0.963235 -1.170113,-0.620996 -1.440837,-0.605502 -2.711719,0.155174 -0.582866,0.348852 -2.330532,1.27236 -3.883733,2.052243 -1.553193,0.779869 -2.955462,1.499184 -3.116153,1.598485 -0.160674,0.09936 -0.68652,0.373304 -1.168549,0.608886 -1.5193,0.742555 -6.886625,3.596971 -7.883764,4.192689 l -0.376697,0.225044 0.624924,0.583772 c 0.343708,0.321069 1.523092,1.020436 2.62085,1.554152 1.097754,0.533714 3.179082,1.618432 4.625178,2.410488 1.446086,0.792041 2.93599,1.563921 3.310894,1.715274 0.374922,0.151353 1.629887,0.789549 2.788815,1.418216 1.158946,0.628681 4.401695,2.277573 7.206089,3.66423 2.80442,1.386654 5.80006,2.884948 6.65701,3.329553 0.85694,0.444621 2.52212,1.191103 3.70042,1.658858 1.1783,0.467756 3.06258,1.362766 4.18731,1.988912 1.12474,0.626144 2.57397,1.384873 3.22051,1.68607 l 1.17556,0.547609 -0.0461,30.633664 c -0.0255,16.84851 0.0223,30.67599 0.10613,30.72776 0.29825,0.18434 11.32709,-5.31699 18.02225,-8.98976 1.06222,-0.5827 3.47237,-1.8537 5.35586,-2.82442 1.88351,-0.97071 5.42917,-2.85373 7.87924,-4.18446 2.45009,-1.33073 4.64112,-2.50061 4.86899,-2.59973 1.38647,-0.60315 5.05582,-2.70058 8.40529,-4.8045 0.21099,-0.13263 0.64656,-0.38556 0.96789,-0.56229 1.62211,-0.89204 2.99964,-2.25931 3.54517,-3.51876 l 0.32129,-0.74173 0.021,-23.273711 c 0.0122,-12.800531 -0.0352,-24.238699 -0.10407,-25.418145 l -0.12505,-2.144462 -0.46594,-0.862107 c -0.25625,-0.474158 -0.78353,-1.464771 -1.17173,-2.201346 -0.3882,-0.736591 -0.93595,-1.579474 -1.21723,-1.873075 -0.28128,-0.293601 -0.51144,-0.643042 -0.51144,-0.776547 0,-0.133486 -0.32866,-0.37703 -0.73035,-0.541175 -0.83936,-0.342992 -1.70889,-0.776937 -8.91023,-4.446739 -2.89217,-1.473846 -6.59053,-3.414783 -8.21859,-4.313206 -1.62805,-0.898408 -3.03504,-1.633474 -3.12669,-1.633474 -0.0917,0 -0.55623,-0.246971 -1.03247,-0.548815 -0.47621,-0.301846 -2.4434,-1.364745 -4.37149,-2.361987 -1.92813,-0.997242 -4.4259,-2.315158 -5.55065,-2.928724 -1.12473,-0.613553 -3.27196,-1.753343 -4.7716,-2.532865 -1.49964,-0.779523 -2.94573,-1.565174 -3.21353,-1.745898 -0.26778,-0.180738 -1.7577,-0.969135 -3.3109,-1.75201 -1.5532,-0.782874 -2.95546,-1.534989 -3.11615,-1.671391 -0.16068,-0.13636 -1.47529,-0.857184 -2.92138,-1.601764 -1.44609,-0.744579 -3.51392,-1.839536 -4.59517,-2.433245 -6.63173,-3.641337 -10.27231,-3.632835 -16.341431,0.0382 -0.535605,0.323952 -1.280557,0.740743 -1.655461,0.926177 -0.374904,0.18545 -0.90075,0.480924 -1.168557,0.656604 -0.267789,0.175696 -1.80151,0.999747 -3.408279,1.831231 -1.606759,0.831483 -3.052845,1.610854 -3.213519,1.73193 -0.339257,0.255652 -0.388134,0.282682 -3.213526,1.777018 -1.178293,0.6232 -3.676076,1.96558 -5.550634,2.983071 -1.874555,1.017507 -4.065593,2.190896 -4.868974,2.607551 -1.704933,0.884231 -3.94107,2.072342 -6.134911,3.259625 -0.856939,0.463769 -2.56595,1.370164 -3.797802,2.014219 -1.23185,0.644055 -2.998876,1.592084 -3.926725,2.106726 -0.927847,0.514658 -1.979545,1.069832 -2.337106,1.233732 -0.357562,0.163902 -0.781575,0.38801 -0.942252,0.498017 -0.484297,0.331577 -4.052744,2.312168 -6.23229,3.459088 -1.124732,0.591851 -2.277602,1.239425 -2.561932,1.439038 -0.284328,0.199615 -0.57537,0.362943 -0.646756,0.362943 -1.567828,0 -4.662416,4.095607 -5.273661,6.979559 l -0.275044,1.297683 0.0057,35.154014 c 0.003,19.33471 0.07719,36.24952 0.164474,37.58848 l 0.158699,2.4345 0.699474,1.79754 c 1.4393,3.69875 2.659379,4.81345 8.605391,7.86203 1.071174,0.5492 2.166695,1.15048 2.434488,1.33614 0.267794,0.18571 1.056568,0.62276 1.752832,0.97128 0.696263,0.34851 2.843482,1.48882 4.771595,2.53404 5.306144,2.8764 9.644452,5.18561 12.561958,6.68653 6.158514,3.16823 8.770007,4.53568 10.419609,5.45599 1.631994,0.91046 6.430793,3.3825 14.120015,7.27377 1.767442,0.89444 3.607915,1.75729 4.089945,1.91743 l 0.87642,0.29117 3.01875,-0.0646 3.01878,-0.0646 z m 17.25777,-41.39314 c -0.0823,-0.13303 -0.18646,-2.66241 -0.23158,-5.62078 l -0.0821,-5.37886 0.25553,-0.46814 c 0.39452,-0.72278 1.19736,-1.22059 2.13982,-1.32683 l 0.85764,-0.0966 0.23876,0.2877 0.23878,0.2877 -0.0516,5.72185 -0.0516,5.72183 -0.89877,0.44617 c -1.13401,0.56298 -2.21252,0.75324 -2.41473,0.42603 z m 8.33905,-3.94601 c -0.0829,-0.13033 -0.18337,-2.7887 -0.22329,-5.90738 l -0.0726,-5.67031 0.22958,-0.42897 c 0.61301,-1.14541 2.75315,-1.91369 3.38523,-1.21524 l 0.32233,0.35616 v 5.86187 5.86185 l -0.63298,0.3307 c -1.37033,0.71593 -1.62881,0.8241 -2.23217,0.93423 -0.39269,0.0717 -0.6815,0.0259 -0.77611,-0.12289 z m 8.36871,-4.36227 c -0.0768,-0.19485 -0.14211,-2.94763 -0.14512,-6.11729 l -0.006,-5.76303 0.26216,-0.31698 c 0.82055,-0.99221 2.50065,-1.51932 3.01856,-0.94702 l 0.32231,0.35615 v 5.66868 c 0,3.11779 -0.0772,5.87182 -0.17159,6.12007 l -0.17163,0.45138 -1.04561,0.33343 c -0.57512,0.18341 -1.24327,0.38642 -1.48482,0.45117 l -0.43914,0.11761 z m -37.03301,24.96808 c 0.57569,-0.26578 1.66021,-0.87688 2.41003,-1.35803 0.74983,-0.48114 1.88875,-1.16201 2.53097,-1.51305 0.64219,-0.35104 1.5742,-1.03264 2.07113,-1.51467 l 0.90346,-0.8764 0.20993,-1.65548 c 0.12627,-0.99511 0.25552,-8.26928 0.32427,-18.23662 l 0.11437,-16.58118 -0.85013,-0.41154 c -0.46757,-0.22634 -0.9206,-0.41155 -1.00673,-0.41155 -0.15194,0 -7.21198,-3.38585 -8.38719,-4.02234 -1.42094,-0.76957 -9.63913,-4.9654 -12.563828,-6.4145 -1.768467,-0.87621 -3.678523,-1.866191 -4.244577,-2.199937 -1.715426,-1.011457 -1.811906,-0.896466 -1.778392,2.119787 0.01136,1.01763 -0.03601,4.65475 -0.10513,8.08252 -0.06924,3.42774 -0.05392,6.71138 0.03379,7.29697 l 0.159556,1.06468 0.57849,0.29863 c 0.318179,0.16424 1.32527,0.73989 2.237985,1.27921 0.912716,0.53932 2.798823,1.5326 4.191342,2.20729 4.347898,2.10661 5.003738,2.44306 5.970173,3.06265 0.516881,0.33138 0.893951,0.64832 0.837941,0.70434 -0.14844,0.14844 0.13006,1.71994 0.28757,1.62258 0.0732,-0.0452 0.24019,0.65833 0.37106,1.56348 l 0.23794,1.64574 -0.20624,0.38534 c -0.27453,0.513 -1.118441,0.71067 -1.63637,0.38329 -1.3782,-0.87115 -2.84673,-1.59639 -4.896391,-2.41806 -3.686537,-1.47791 -12.878671,-5.95695 -13.603179,-6.62838 l -0.44415,-0.41163 -0.129364,-6.90448 C 79.880431,93.146994 79.950635,92.283755 82.16964,90.861507 l 0.759381,-0.486719 0.631583,0.102481 c 0.864838,0.140343 1.459681,0.422553 13.430373,6.371606 5.784343,2.87465 11.863433,5.843175 13.509053,6.596765 1.64563,0.75358 3.28891,1.59658 3.65173,1.87331 0.42449,0.32376 0.66425,0.41283 0.67247,0.2498 0.0698,-1.38241 -0.0525,-14.705535 -0.14194,-15.444578 -0.20735,-1.71465 -0.41526,-1.889043 -5.22667,-4.383962 -1.71388,-0.888716 -3.77348,-1.978651 -4.57684,-2.42208 -0.80339,-0.443428 -1.85508,-0.963144 -2.3371,-1.154938 -0.48204,-0.191791 -1.14018,-0.510807 -1.46253,-0.708924 -0.32237,-0.198136 -1.899914,-1.024756 -3.505676,-1.836956 -1.605753,-0.812184 -3.620672,-1.873105 -4.477623,-2.357591 -1.534239,-0.867392 -6.959578,-3.592682 -7.152113,-3.592682 -0.05429,0 -1.490911,-0.757611 -3.192487,-1.683593 -7.410551,-4.032744 -8.514656,-4.447239 -9.590167,-3.600338 -0.864075,0.680401 -2.483334,1.511143 -3.886388,1.993863 -2.12452,0.730944 -4.880786,3.60792 -5.457459,5.696464 -0.238445,0.863571 -0.113668,37.753515 0.155567,45.991215 l 0.165496,5.06375 0.480772,1.46068 c 2.009666,6.10583 3.192983,7.01639 18.304442,14.0853 1.046497,0.48953 2.162405,1.07498 2.479809,1.30098 0.317395,0.22601 2.13424,1.20439 4.037437,2.17417 1.903187,0.96978 4.380571,2.26659 5.505311,2.88179 1.124731,0.61519 2.833749,1.51701 3.797798,2.00403 0.964062,0.48704 2.322491,1.21692 3.018751,1.62196 3.37476,1.96323 3.49591,1.99669 4.89344,1.3515 z"
     id="path3" /><g
     inkscape:groupmode="layer"
     id="layer2"
     inkscape:label="Layer 2" /></svg>
